<?xml version="1.0" standalone="no"?>
<!DOCTYPE svg PUBLIC "-//W3C//DTD SVG 20010904//EN"
 "http://www.w3.org/TR/2001/REC-SVG-20010904/DTD/svg10.dtd">
<svg version="1.0" xmlns="http://www.w3.org/2000/svg"
 width="2471.000000pt" height="2471.000000pt" viewBox="0 0 2471.000000 2471.000000"
 preserveAspectRatio="xMidYMid meet">

<g transform="translate(0.000000,2471.000000) scale(0.100000,-0.100000)"
fill="#000000" stroke="none">
<path d="M5389 19003 c-2511 -2513 -4592 -4599 -4625 -4638 -420 -492 -669
-1075 -734 -1715 -13 -135 -13 -455 0 -590 65 -640 314 -1223 734 -1715 33
-38 2103 -2115 4601 -4615 2498 -2500 4580 -4590 4628 -4646 476 -556 1119
-920 1832 -1038 341 -57 754 -49 1100 19 706 141 1342 532 1804 1110 164 205
365 562 455 805 84 229 147 488 177 730 18 140 18 563 0 700 -72 561 -273
1060 -603 1498 -120 159 -309 357 -473 497 -66 56 -343 329 -615 606 -847 863
-997 1015 -1281 1304 -941 955 -4929 5027 -4929 5033 0 4 1100 1107 2445 2452
l2445 2445 -1163 1165 c-735 735 -1193 1202 -1243 1265 -251 317 -461 724
-564 1093 -80 288 -113 538 -113 847 0 225 9 333 44 535 83 481 291 956 585
1338 35 45 63 82 61 82 -1 0 -2057 -2055 -4568 -4567z"/>
</g>
</svg>
